<svg width="12" height="14" viewBox="0 0 12 14" fill="none" xmlns="http://www.w3.org/2000/svg">
<path d="M2.52476 11.9482C2.6894 11.9482 2.82287 11.8257 2.82287 11.6746C2.82287 11.5235 2.6894 11.4011 2.52476 11.4011C2.36012 11.4011 2.22665 11.5235 2.22665 11.6746C2.22665 11.8257 2.36012 11.9482 2.52476 11.9482Z" fill="black"/>
<path d="M0.758061 5.02054C0.910662 5.02054 1.04073 4.91357 1.05462 4.7714C1.08031 4.50852 1.13084 4.24636 1.20477 3.99218C1.24722 3.8462 1.15269 3.69628 0.993625 3.6573C0.834585 3.61834 0.671192 3.70507 0.628712 3.85107C0.546047 4.1354 0.489526 4.42858 0.460789 4.72251C0.446092 4.873 0.567064 5.00593 0.731052 5.01945C0.740144 5.02016 0.749118 5.02054 0.758061 5.02054V5.02054Z" fill="black"/>
<path d="M10.9065 3.70975C10.9484 3.82397 11.0645 3.89608 11.189 3.89608C11.2205 3.89608 11.2526 3.89146 11.2842 3.88169C11.4402 3.83346 11.5241 3.67829 11.4715 3.5351C11.3692 3.25633 11.2397 2.98344 11.0867 2.72404C11.0084 2.59119 10.8275 2.54178 10.6826 2.61368C10.5379 2.6856 10.484 2.85163 10.5624 2.98451C10.6992 3.21647 10.815 3.4605 10.9065 3.70975V3.70975Z" fill="black"/>
<path d="M1.19192 6.34444C1.15108 6.19808 0.98879 6.10983 0.829184 6.14728C0.669697 6.18476 0.573498 6.33377 0.614338 6.48016C0.693963 6.76553 0.801192 7.04668 0.932985 7.31579C0.982679 7.41718 1.09131 7.47726 1.20507 7.47726C1.24591 7.47726 1.28746 7.46951 1.32714 7.45313C1.4773 7.39116 1.54428 7.22923 1.47682 7.09144C1.35892 6.85083 1.26308 6.5995 1.19192 6.34444V6.34444Z" fill="black"/>
<path d="M6.37325 0.546764C6.66078 0.560744 6.94815 0.597403 7.22742 0.655701C7.24969 0.660352 7.2719 0.662568 7.29384 0.662568C7.42989 0.662568 7.5528 0.576529 7.58425 0.449646C7.6208 0.302327 7.52028 0.155719 7.35972 0.122179C7.04739 0.0569589 6.72612 0.0159503 6.40476 0.000356628C6.24173 -0.00760435 6.10001 0.108172 6.09131 0.259102C6.0826 0.409978 6.20885 0.538776 6.37325 0.546764V0.546764Z" fill="black"/>
<path d="M3.73117 1.04753C3.77553 1.04753 3.8206 1.03839 3.86311 1.0191C4.12074 0.902204 4.39082 0.805003 4.66594 0.730263C4.82379 0.687367 4.91388 0.535151 4.86716 0.390294C4.82042 0.245437 4.65452 0.162736 4.49668 0.205632C4.18897 0.289236 3.88687 0.397926 3.59878 0.528667C3.45122 0.595665 3.39073 0.759754 3.46374 0.895173C3.51573 0.991608 3.62138 1.04753 3.73117 1.04753Z" fill="black"/>
<path d="M11.4721 4.99954C11.4704 4.99951 11.4688 4.99951 11.4671 4.99951C11.3048 4.99951 11.1718 5.11906 11.1691 5.26857C11.1644 5.5332 11.1351 5.79824 11.0819 6.05635C11.0514 6.20482 11.1577 6.3479 11.3195 6.37597C11.3382 6.37922 11.3568 6.38078 11.3752 6.38078C11.5157 6.38078 11.6407 6.28925 11.6677 6.15793C11.7272 5.86937 11.76 5.57317 11.7653 5.27757C11.768 5.1265 11.6367 5.00203 11.4721 4.99954V4.99954Z" fill="black"/>
<path d="M9.90022 1.33791C9.66212 1.14003 9.40411 0.959581 9.13349 0.801647C8.99451 0.720533 8.81028 0.758231 8.72195 0.885716C8.63359 1.0132 8.67461 1.1823 8.81353 1.26336C9.05583 1.40474 9.28677 1.56628 9.50001 1.74348C9.55707 1.79089 9.62864 1.81425 9.70001 1.81425C9.78127 1.81425 9.86221 1.78394 9.92106 1.7243C10.0316 1.61235 10.0223 1.43932 9.90022 1.33791Z" fill="black"/>
<path d="M10.8868 7.43553C10.7447 7.35914 10.5621 7.40302 10.4789 7.53338C10.3338 7.76075 10.1664 7.97846 9.98118 8.18049C9.87518 8.2961 9.89139 8.46867 10.0174 8.56596C10.0733 8.60913 10.1414 8.63019 10.2092 8.63019C10.2941 8.63019 10.3785 8.59706 10.4374 8.53272C10.6443 8.30705 10.8314 8.06384 10.9934 7.80983C11.0766 7.67944 11.0289 7.51185 10.8868 7.43553V7.43553Z" fill="black"/>
<path d="M1.92512 2.55992C2.08798 2.3429 2.2723 2.13695 2.47304 1.94783C2.58793 1.8396 2.58546 1.66638 2.4675 1.56097C2.34951 1.45554 2.1608 1.45783 2.04594 1.56606C1.82177 1.77723 1.6159 2.00722 1.43405 2.24961C1.34068 2.37406 1.37494 2.54438 1.51052 2.63009C1.56212 2.66273 1.62102 2.67838 1.6793 2.67838C1.7741 2.67838 1.86729 2.63699 1.92512 2.55992V2.55992Z" fill="black"/>
<path d="M9.0831 5.19093C9.0831 3.68245 7.74583 2.4552 6.10204 2.4552C4.45825 2.4552 3.12097 3.68245 3.12097 5.19093C3.12097 6.28271 3.83157 7.26678 4.90961 7.69864V7.81231L2.23315 9.04041C1.68285 9.29292 1.43077 9.90137 1.65926 10.4256L1.74974 10.6332C1.79636 10.7401 1.9083 10.8052 2.02662 10.8052C2.06347 10.8052 2.10094 10.7989 2.13725 10.7856C2.29012 10.7295 2.36447 10.5703 2.30332 10.43L2.21285 10.2224C2.09858 9.96024 2.22462 9.65603 2.49975 9.52981L5.34103 8.22609C5.44206 8.17975 5.50582 8.08501 5.50582 7.98141V5.51922C5.50582 5.21752 5.77328 4.97207 6.10204 4.97207C6.43079 4.97207 6.69825 5.21752 6.69825 5.51922V10.4435C6.69825 10.5946 6.83174 10.7171 6.99636 10.7171C7.16097 10.7171 7.29446 10.5946 7.29446 10.4435V9.13482L8.20273 10.2033C8.34335 10.3687 8.36815 10.5969 8.2659 10.7845L6.8121 13.4528H3.6209L3.29977 12.7161C3.23857 12.5758 3.06511 12.5075 2.91227 12.5637C2.7594 12.6198 2.68505 12.779 2.74619 12.9193L3.14229 13.828C3.18757 13.9319 3.29718 14 3.41908 14H6.99636C7.10928 14 7.21248 13.9414 7.26298 13.8488L8.79916 11.0292C9.00363 10.6539 8.95405 10.1977 8.67282 9.86676L7.29446 8.24524V7.69864C8.37251 7.26675 9.0831 6.28271 9.0831 5.19093V5.19093ZM6.10204 4.42493C5.44453 4.42493 4.90961 4.91583 4.90961 5.51922V7.08655C4.18247 6.70065 3.71718 5.98112 3.71718 5.19093C3.71718 3.98415 4.78703 3.00235 6.10204 3.00235C7.41704 3.00235 8.48689 3.98415 8.48689 5.19093C8.48689 5.98112 8.0216 6.70065 7.29446 7.08655V5.51922C7.29446 4.9158 6.75951 4.42493 6.10204 4.42493V4.42493Z" fill="black"/>
</svg>
