<svg width="136" height="41" viewBox="0 0 136 41" fill="none" xmlns="http://www.w3.org/2000/svg">
<g filter="url(#filter0_d)">
<path d="M4.83506 8.664L4.71506 4.128C4.71506 3.408 4.63506 2.84 4.47506 2.424C4.31506 2.008 4.23506 1.784 4.23506 1.752C4.23506 1.4 4.77106 1.128 5.84306 0.935999C6.93106 0.743999 7.75506 0.647999 8.31506 0.647999C8.89106 0.647999 9.20306 0.783999 9.25106 1.056C10.2591 5.552 11.1071 8.672 11.7951 10.416C11.8751 10.608 11.9551 10.704 12.0351 10.704C12.1311 10.704 12.2111 10.632 12.2751 10.488C13.3471 7.464 14.2911 4.472 15.1071 1.512C15.1711 1.32 15.3311 1.176 15.5871 1.08C15.8431 0.967999 16.2831 0.863999 16.9071 0.767999C17.5471 0.671999 18.1791 0.623999 18.8031 0.623999C19.4271 0.623999 19.7391 0.751999 19.7391 1.008C19.7391 1.024 19.7151 1.152 19.6671 1.392C19.6191 1.616 19.5711 1.896 19.5231 2.232C19.4751 2.568 19.4191 2.976 19.3551 3.456C19.2111 4.56 19.1151 5.832 19.0671 7.272C19.0351 8.696 19.0191 10.128 19.0191 11.568L19.0671 14.088C19.0671 15.24 19.1391 16.064 19.2831 16.56C19.4431 17.04 19.5231 17.32 19.5231 17.4C19.5231 17.464 19.4671 17.544 19.3551 17.64C18.8591 18.04 18.1071 18.24 17.0991 18.24C16.4591 18.24 16.0991 18.024 16.0191 17.592C15.9711 17.368 15.9471 17.016 15.9471 16.536C15.9471 16.04 15.9951 14.536 16.0911 12.024C16.1871 9.512 16.2351 7.688 16.2351 6.552C16.2351 5.4 16.1711 4.824 16.0431 4.824C16.0271 4.824 16.0191 4.832 16.0191 4.848C16.0191 4.848 15.9951 4.856 15.9471 4.872C15.8991 4.888 15.7711 5.136 15.5631 5.616C15.3711 6.096 14.9791 7.28 14.3871 9.168C13.7951 11.056 13.2591 12.824 12.7791 14.472C12.2991 16.104 12.0351 16.984 11.9871 17.112C11.8111 17.544 11.4751 17.76 10.9791 17.76C10.7391 17.76 10.5471 17.672 10.4031 17.496C9.89106 15.128 8.97906 11.744 7.66706 7.344L6.99506 5.16C6.96306 5.08 6.93106 5.04 6.89906 5.04C6.81906 5.04 6.76306 5.096 6.73106 5.208C6.66706 6.248 6.63506 8.296 6.63506 11.352C6.63506 14.392 6.74706 16.312 6.97106 17.112C6.98706 17.144 6.99506 17.192 6.99506 17.256C6.99506 17.592 6.73106 17.84 6.20306 18C5.67506 18.144 5.19506 18.216 4.76306 18.216C4.34706 18.216 4.13906 18.12 4.13906 17.928C4.13906 17.912 4.17906 17.784 4.25906 17.544C4.49906 16.728 4.65106 15.544 4.71506 13.992C4.79506 12.44 4.83506 10.664 4.83506 8.664ZM27.1866 4.248C25.9226 5.832 25.0106 7.416 24.4506 9H24.4746C26.6986 9 27.9706 9.008 28.2906 9.024C28.6266 9.024 28.8106 9.008 28.8426 8.976C28.8746 8.944 28.8986 8.904 28.9146 8.856C28.6426 6.888 28.4266 5.552 28.2666 4.848C28.1066 4.128 27.9466 3.768 27.7866 3.768C27.6266 3.768 27.4266 3.928 27.1866 4.248ZM25.0506 15.552L25.5786 15.456C25.7386 15.456 25.8186 15.544 25.8186 15.72C25.8186 16.28 25.7066 16.752 25.4826 17.136C25.2586 17.52 24.9786 17.792 24.6426 17.952C24.0986 18.224 23.6346 18.36 23.2506 18.36C22.5146 18.36 21.9626 18.088 21.5946 17.544C21.2266 16.984 21.0426 16.152 21.0426 15.048C21.0426 13.928 21.3466 12.48 21.9546 10.704H20.5626C20.3866 10.704 20.2986 10.616 20.2986 10.44C20.2986 10.264 20.4346 9.984 20.7066 9.6C20.9786 9.2 21.2666 9 21.5706 9H22.6506C23.7866 6.472 25.1226 4.288 26.6586 2.448C27.0586 1.968 27.5466 1.52 28.1226 1.104C28.7146 0.687999 29.1706 0.48 29.4906 0.48C29.8106 0.48 30.0506 0.624 30.2106 0.912C30.6266 1.584 31.1146 4.04 31.6746 8.28C31.8666 10.104 32.1946 11.992 32.6586 13.944C33.1386 15.88 33.5786 17.008 33.9786 17.328C34.0746 17.392 34.1226 17.472 34.1226 17.568C34.1226 17.808 33.7786 18.032 33.0906 18.24C32.4186 18.448 31.8986 18.552 31.5306 18.552C31.1786 18.552 30.9066 18.504 30.7146 18.408C30.5226 18.328 30.4026 18.24 30.3546 18.144C30.0666 17.52 29.7786 16.032 29.4906 13.68L29.3466 12.552C29.2826 11.8 29.2186 11.232 29.1546 10.848L28.9866 10.728L23.9706 10.704C23.7786 11.52 23.6826 12.232 23.6826 12.84C23.6826 13.448 23.6986 13.896 23.7306 14.184C23.7786 14.456 23.9146 14.752 24.1386 15.072C24.3626 15.392 24.6666 15.552 25.0506 15.552ZM42.7204 8.904C42.5444 8.952 42.4564 9.008 42.4564 9.072C42.4564 9.12 42.6484 9.216 43.0324 9.36C43.4164 9.504 43.7764 9.728 44.1124 10.032C44.4644 10.336 44.7124 10.704 44.8564 11.136C45.0804 11.792 45.1924 12.496 45.1924 13.248C45.1924 14 45.2484 14.624 45.3604 15.12C45.4724 15.6 45.6084 15.968 45.7684 16.224C46.0884 16.768 46.3844 17.104 46.6564 17.232L46.8244 17.328C46.9204 17.392 46.9684 17.472 46.9684 17.568C46.9684 17.808 46.5764 18.016 45.7924 18.192C45.0084 18.384 44.4004 18.48 43.9684 18.48C43.1204 18.48 42.5764 18.144 42.3364 17.472C42.1124 16.784 42.0004 15.616 42.0004 13.968V12.648C42.0004 11.256 41.5844 10.368 40.7524 9.984C40.4324 9.84 40.0484 9.768 39.6004 9.768H39.5764C39.4324 9.768 39.3604 9.632 39.3604 9.36C39.3604 9.072 39.4404 8.784 39.6004 8.496C39.7764 8.208 39.9284 8.064 40.0564 8.064C40.5844 8.064 41.0404 7.968 41.4244 7.776C41.8084 7.568 42.0884 7.32 42.2644 7.032C42.6324 6.424 42.8324 5.904 42.8644 5.472V5.16C42.8644 4.568 42.7684 4.072 42.5764 3.672C42.3844 3.256 42.1444 2.968 41.8564 2.808C41.3764 2.552 40.8884 2.424 40.3924 2.424C39.8964 2.424 39.4884 2.464 39.1684 2.544C38.7204 2.672 38.4964 2.808 38.4964 2.952C38.3524 5.048 38.2804 7.072 38.2804 9.024C38.2804 10.96 38.3044 12.448 38.3524 13.488C38.4164 14.512 38.4724 15.344 38.5204 15.984C38.5844 16.608 38.6164 16.976 38.6164 17.088C38.6164 17.296 38.5604 17.44 38.4484 17.52C37.7924 18.128 36.7604 18.432 35.3524 18.432C35.1124 18.432 34.9924 18.352 34.9924 18.192C34.9924 18.144 35.0164 18.032 35.0644 17.856C35.2244 17.488 35.3364 16.32 35.4004 14.352C35.4804 12.384 35.5204 10.592 35.5204 8.976C35.5204 7.344 35.4884 6.024 35.4244 5.016C35.3284 3.496 35.1684 2.584 34.9444 2.28C34.7684 2.056 34.6804 1.904 34.6804 1.824C34.6804 1.728 34.7684 1.632 34.9444 1.536C35.9684 1.056 37.8244 0.816 40.5124 0.816C42.6724 0.816 44.2884 1.424 45.3604 2.64C45.9364 3.312 46.2244 4.152 46.2244 5.16C46.2244 5.768 46.1044 6.312 45.8644 6.792C45.6244 7.272 45.3284 7.64 44.9764 7.896C44.3044 8.408 43.6724 8.72 43.0804 8.832L42.7204 8.904ZM51.2241 7.368C51.2241 12.328 51.3361 15.576 51.5601 17.112C51.5601 17.496 51.1921 17.808 50.4561 18.048C49.7201 18.304 49.1121 18.432 48.6321 18.432C48.1521 18.432 47.9121 18.36 47.9121 18.216C47.9121 18.12 47.9361 18 47.9841 17.856C48.2881 17.184 48.4401 14.48 48.4401 9.744C48.4401 5.264 48.2481 2.776 47.8641 2.28L47.7681 2.136C47.6721 2.056 47.6241 1.96 47.6241 1.848C47.6241 1.72 47.7121 1.616 47.8881 1.536C48.1281 1.392 48.5521 1.248 49.1601 1.104C49.7841 0.959999 50.3441 0.887999 50.8401 0.887999C51.3361 0.887999 51.5841 0.999999 51.5841 1.224V1.296C51.3921 2.96 51.2721 4.984 51.2241 7.368ZM59.5069 4.248C58.2429 5.832 57.3309 7.416 56.7709 9H56.7949C59.0189 9 60.2909 9.008 60.6109 9.024C60.9469 9.024 61.1309 9.008 61.1629 8.976C61.1949 8.944 61.2189 8.904 61.2349 8.856C60.9629 6.888 60.7469 5.552 60.5869 4.848C60.4269 4.128 60.2669 3.768 60.1069 3.768C59.9469 3.768 59.7469 3.928 59.5069 4.248ZM57.3709 15.552L57.8989 15.456C58.0589 15.456 58.1389 15.544 58.1389 15.72C58.1389 16.28 58.0269 16.752 57.8029 17.136C57.5789 17.52 57.2989 17.792 56.9629 17.952C56.4189 18.224 55.9549 18.36 55.5709 18.36C54.8349 18.36 54.2829 18.088 53.9149 17.544C53.5469 16.984 53.3629 16.152 53.3629 15.048C53.3629 13.928 53.6669 12.48 54.2749 10.704H52.8829C52.7069 10.704 52.6189 10.616 52.6189 10.44C52.6189 10.264 52.7549 9.984 53.0269 9.6C53.2989 9.2 53.5869 9 53.8909 9H54.9709C56.1069 6.472 57.4429 4.288 58.9789 2.448C59.3789 1.968 59.8669 1.52 60.4429 1.104C61.0349 0.687999 61.4909 0.48 61.8109 0.48C62.1309 0.48 62.3709 0.624 62.5309 0.912C62.9469 1.584 63.4349 4.04 63.9949 8.28C64.1869 10.104 64.5149 11.992 64.9789 13.944C65.4589 15.88 65.8989 17.008 66.2989 17.328C66.3949 17.392 66.4429 17.472 66.4429 17.568C66.4429 17.808 66.0989 18.032 65.4109 18.24C64.7389 18.448 64.2189 18.552 63.8509 18.552C63.4989 18.552 63.2269 18.504 63.0349 18.408C62.8429 18.328 62.7229 18.24 62.6749 18.144C62.3869 17.52 62.0989 16.032 61.8109 13.68L61.6669 12.552C61.6029 11.8 61.5389 11.232 61.4749 10.848L61.3069 10.728L56.2909 10.704C56.0989 11.52 56.0029 12.232 56.0029 12.84C56.0029 13.448 56.0189 13.896 56.0509 14.184C56.0989 14.456 56.2349 14.752 56.4589 15.072C56.6829 15.392 56.9869 15.552 57.3709 15.552ZM78.0092 17.976L76.6412 17.952C76.4492 17.952 76.2572 17.952 76.0652 17.952L71.6972 18.168C71.4572 18.168 71.3372 18.088 71.3372 17.928C71.3372 17.88 71.3612 17.768 71.4092 17.592C71.5692 17.224 71.6812 16.056 71.7452 14.088C71.8252 12.12 71.8652 10.328 71.8652 8.712C71.8652 7.08 71.8332 5.76 71.7692 4.752C71.6732 3.232 71.5132 2.32 71.2892 2.016C71.1132 1.792 71.0252 1.648 71.0252 1.584C71.0252 1.328 71.4572 1.104 72.3212 0.912C73.1852 0.719999 73.8012 0.623999 74.1692 0.623999C74.5532 0.623999 74.7932 0.647999 74.8892 0.696C74.9852 0.727999 75.0332 0.807999 75.0332 0.935999C75.0332 1.064 75.0012 1.472 74.9372 2.16C74.7772 4.192 74.6972 6.56 74.6972 9.264C74.6972 11.952 74.7612 14.104 74.8892 15.72C74.8892 15.896 75.0412 16.048 75.3452 16.176C75.6492 16.304 76.0252 16.368 76.4732 16.368C78.0412 16.368 78.8252 15.16 78.8252 12.744C78.8252 12.072 78.7852 11.656 78.7052 11.496C78.6412 11.336 78.6092 11.232 78.6092 11.184C78.6092 11.024 78.7212 10.944 78.9452 10.944C79.1212 10.944 79.3532 11.032 79.6412 11.208C79.9452 11.384 80.1932 11.608 80.3852 11.88C80.5772 12.136 80.7532 12.552 80.9132 13.128C81.0732 13.688 81.1532 14.352 81.1532 15.12C81.1532 17.024 80.9212 17.976 80.4572 17.976C79.6412 17.976 78.8252 17.976 78.0092 17.976ZM88.2881 4.248C87.0241 5.832 86.1121 7.416 85.5521 9H85.5761C87.8001 9 89.0721 9.008 89.3921 9.024C89.7281 9.024 89.9121 9.008 89.9441 8.976C89.9761 8.944 90.0001 8.904 90.0161 8.856C89.7441 6.888 89.5281 5.552 89.3681 4.848C89.2081 4.128 89.0481 3.768 88.8881 3.768C88.7281 3.768 88.5281 3.928 88.2881 4.248ZM86.1521 15.552L86.6801 15.456C86.8401 15.456 86.9201 15.544 86.9201 15.72C86.9201 16.28 86.8081 16.752 86.5841 17.136C86.3601 17.52 86.0801 17.792 85.7441 17.952C85.2001 18.224 84.7361 18.36 84.3521 18.36C83.6161 18.36 83.0641 18.088 82.6961 17.544C82.3281 16.984 82.1441 16.152 82.1441 15.048C82.1441 13.928 82.4481 12.48 83.0561 10.704H81.6641C81.4881 10.704 81.4001 10.616 81.4001 10.44C81.4001 10.264 81.5361 9.984 81.8081 9.6C82.0801 9.2 82.3681 9 82.6721 9H83.7521C84.8881 6.472 86.2241 4.288 87.7601 2.448C88.1601 1.968 88.6481 1.52 89.2241 1.104C89.8161 0.687999 90.2721 0.48 90.5921 0.48C90.9121 0.48 91.1521 0.624 91.3121 0.912C91.7281 1.584 92.2161 4.04 92.7761 8.28C92.9681 10.104 93.2961 11.992 93.7601 13.944C94.2401 15.88 94.6801 17.008 95.0801 17.328C95.1761 17.392 95.2241 17.472 95.2241 17.568C95.2241 17.808 94.8801 18.032 94.1921 18.24C93.5201 18.448 93.0001 18.552 92.6321 18.552C92.2801 18.552 92.0081 18.504 91.8161 18.408C91.6241 18.328 91.5041 18.24 91.4561 18.144C91.1681 17.52 90.8801 16.032 90.5921 13.68L90.4481 12.552C90.3841 11.8 90.3201 11.232 90.2561 10.848L90.0881 10.728L85.0721 10.704C84.8801 11.52 84.7841 12.232 84.7841 12.84C84.7841 13.448 84.8001 13.896 84.8321 14.184C84.8801 14.456 85.0161 14.752 85.2401 15.072C85.4641 15.392 85.7681 15.552 86.1521 15.552ZM103.822 8.904C103.646 8.952 103.558 9.008 103.558 9.072C103.558 9.12 103.75 9.216 104.134 9.36C104.518 9.504 104.878 9.728 105.214 10.032C105.566 10.336 105.814 10.704 105.958 11.136C106.182 11.792 106.294 12.496 106.294 13.248C106.294 14 106.35 14.624 106.462 15.12C106.574 15.6 106.71 15.968 106.87 16.224C107.19 16.768 107.486 17.104 107.758 17.232L107.926 17.328C108.022 17.392 108.07 17.472 108.07 17.568C108.07 17.808 107.678 18.016 106.894 18.192C106.11 18.384 105.502 18.48 105.07 18.48C104.222 18.48 103.678 18.144 103.438 17.472C103.214 16.784 103.102 15.616 103.102 13.968V12.648C103.102 11.256 102.686 10.368 101.854 9.984C101.534 9.84 101.15 9.768 100.702 9.768H100.678C100.534 9.768 100.462 9.632 100.462 9.36C100.462 9.072 100.542 8.784 100.702 8.496C100.878 8.208 101.03 8.064 101.158 8.064C101.686 8.064 102.142 7.968 102.526 7.776C102.91 7.568 103.19 7.32 103.366 7.032C103.734 6.424 103.934 5.904 103.966 5.472V5.16C103.966 4.568 103.87 4.072 103.678 3.672C103.486 3.256 103.246 2.968 102.958 2.808C102.478 2.552 101.99 2.424 101.494 2.424C100.998 2.424 100.59 2.464 100.27 2.544C99.8219 2.672 99.5979 2.808 99.5979 2.952C99.4539 5.048 99.3819 7.072 99.3819 9.024C99.3819 10.96 99.4059 12.448 99.4539 13.488C99.5179 14.512 99.5739 15.344 99.6219 15.984C99.6859 16.608 99.7179 16.976 99.7179 17.088C99.7179 17.296 99.6619 17.44 99.5499 17.52C98.8939 18.128 97.8619 18.432 96.4539 18.432C96.2139 18.432 96.0939 18.352 96.0939 18.192C96.0939 18.144 96.1179 18.032 96.1659 17.856C96.3259 17.488 96.4379 16.32 96.5019 14.352C96.5819 12.384 96.6219 10.592 96.6219 8.976C96.6219 7.344 96.5899 6.024 96.5259 5.016C96.4299 3.496 96.2699 2.584 96.0459 2.28C95.8699 2.056 95.7819 1.904 95.7819 1.824C95.7819 1.728 95.8699 1.632 96.0459 1.536C97.0699 1.056 98.9259 0.816 101.614 0.816C103.774 0.816 105.39 1.424 106.462 2.64C107.038 3.312 107.326 4.152 107.326 5.16C107.326 5.768 107.206 6.312 106.966 6.792C106.726 7.272 106.43 7.64 106.078 7.896C105.406 8.408 104.774 8.72 104.182 8.832L103.822 8.904ZM118.902 15.024C118.902 16.144 118.542 16.976 117.822 17.52C117.118 18.064 116.126 18.336 114.846 18.336C112.798 18.336 111.286 17.656 110.31 16.296C109.35 14.936 108.87 13.16 108.87 10.968C108.87 10.616 108.886 10.104 108.918 9.432H107.574C107.446 9.432 107.382 9.384 107.382 9.288C107.382 9.016 107.518 8.688 107.79 8.304C108.062 7.92 108.358 7.728 108.678 7.728H109.134C109.342 6.576 109.678 5.56 110.142 4.68C110.622 3.8 111.118 3.12 111.63 2.64C112.158 2.16 112.734 1.776 113.358 1.488C114.35 1.008 115.39 0.767999 116.478 0.767999C117.566 0.767999 118.246 0.943999 118.518 1.296C118.646 1.472 118.71 1.8 118.71 2.28C118.71 2.744 118.654 2.976 118.542 2.976C118.526 2.976 118.454 2.944 118.326 2.88C117.91 2.688 117.39 2.592 116.766 2.592C115.406 2.592 114.342 3.072 113.574 4.032C112.822 4.992 112.318 6.224 112.062 7.728C113.278 7.712 114.926 7.704 117.006 7.704C117.166 7.704 117.246 7.76 117.246 7.872C117.246 8.128 117.118 8.456 116.862 8.856C116.606 9.24 116.318 9.432 115.998 9.432H111.87C111.854 9.624 111.846 10.048 111.846 10.704C111.846 11.344 111.958 12.024 112.182 12.744C112.422 13.448 112.854 14.048 113.478 14.544C114.118 15.04 114.942 15.288 115.95 15.288C116.958 15.288 117.806 15.064 118.494 14.616C118.574 14.552 118.646 14.52 118.71 14.52C118.838 14.52 118.902 14.688 118.902 15.024ZM127.579 4.704L127.675 3.96C127.675 3.224 127.387 2.752 126.811 2.544C126.363 2.4 126.019 2.328 125.779 2.328H125.755C125.275 2.328 124.859 2.408 124.507 2.568C124.155 2.712 123.899 2.896 123.739 3.12C123.403 3.584 123.211 4.072 123.163 4.584C123.163 5.192 123.435 5.72 123.979 6.168C124.523 6.6 125.179 6.984 125.947 7.32C126.731 7.64 127.507 7.992 128.275 8.376C129.059 8.76 129.723 9.312 130.267 10.032C130.811 10.752 131.083 11.616 131.083 12.624C131.083 14.592 130.459 16.064 129.211 17.04C127.979 18.016 126.571 18.504 124.987 18.504C123.419 18.504 122.115 18.152 121.075 17.448C120.051 16.728 119.539 15.768 119.539 14.568V14.544C119.539 13.952 119.627 13.44 119.803 13.008C119.995 12.56 120.219 12.232 120.475 12.024C121.003 11.592 121.483 11.36 121.915 11.328L122.203 11.304C122.651 11.304 123.059 11.416 123.427 11.64C123.795 11.848 123.979 12.144 123.979 12.528C123.979 12.72 123.875 12.88 123.667 13.008C123.459 13.136 123.275 13.328 123.115 13.584C122.971 13.84 122.891 14.056 122.875 14.232L122.827 14.496C122.827 15.472 123.275 16.12 124.171 16.44C124.491 16.552 124.747 16.608 124.939 16.608C125.819 16.608 126.523 16.344 127.051 15.816C127.595 15.288 127.867 14.616 127.867 13.8C127.867 12.824 127.451 12.032 126.619 11.424C125.995 10.976 125.315 10.6 124.579 10.296C123.859 9.992 123.371 9.776 123.115 9.648C122.859 9.52 122.587 9.368 122.299 9.192C122.011 9.016 121.691 8.768 121.339 8.448C120.571 7.776 120.187 6.872 120.187 5.736C120.187 4.584 120.499 3.616 121.123 2.832C122.243 1.408 123.923 0.696 126.163 0.696C127.347 0.696 128.347 0.927999 129.163 1.392C129.979 1.84 130.387 2.464 130.387 3.264C130.387 3.84 130.219 4.32 129.883 4.704C129.563 5.088 129.147 5.28 128.635 5.28C128.395 5.28 128.155 5.232 127.915 5.136C127.691 5.04 127.579 4.896 127.579 4.704Z" fill="#411776"/>
<path d="M23.7832 30L20.6484 23.8418V30H19.4473V21.5977H20.7598L23.959 27.9258L27.1641 21.5977H28.4707V30H27.2754V23.8418L24.1406 30H23.7832ZM30.5215 27.2754C30.5215 27.1152 30.5508 26.9668 30.6094 26.8301C30.6719 26.6895 30.7539 26.5664 30.8555 26.4609C30.9609 26.3555 31.084 26.2734 31.2246 26.2148C31.3652 26.1523 31.5137 26.1211 31.6699 26.1211H34.6465V24.9141H30.8789V23.7598H34.6465C34.8066 23.7598 34.957 23.791 35.0977 23.8535C35.2383 23.9121 35.3594 23.9941 35.4609 24.0996C35.5664 24.2012 35.6484 24.3223 35.707 24.4629C35.7695 24.6035 35.8008 24.7539 35.8008 24.9141V30H34.6465V28.9453C34.6348 29.0898 34.5957 29.2266 34.5293 29.3555C34.4629 29.4844 34.377 29.5977 34.2715 29.6953C34.1699 29.7891 34.0527 29.8633 33.9199 29.918C33.7871 29.9727 33.6465 30 33.498 30H31.6699C31.5137 30 31.3652 29.9707 31.2246 29.9121C31.084 29.8496 30.9609 29.7676 30.8555 29.666C30.7539 29.5605 30.6719 29.4375 30.6094 29.2969C30.5508 29.1562 30.5215 29.0059 30.5215 28.8457V27.2754ZM31.6699 28.8457H34.6465V27.2754H31.6699V28.8457ZM37.3652 23.7598H38.8887V21.8379H40.043V23.7598H42.0938V24.9141H40.043V28.8457H42.0938V30H40.043C39.8867 30 39.7383 29.9707 39.5977 29.9121C39.457 29.8496 39.334 29.7676 39.2285 29.666C39.123 29.5605 39.0391 29.4375 38.9766 29.2969C38.918 29.1562 38.8887 29.0059 38.8887 28.8457V24.9141H37.3652V23.7598ZM49.541 30H48.3867V24.9141H45.1699V30H44.0215V21.3574H45.1699V24.8613C45.1777 24.709 45.2129 24.5664 45.2754 24.4336C45.3379 24.2969 45.4199 24.1797 45.5215 24.082C45.627 23.9805 45.748 23.9023 45.8848 23.8477C46.0215 23.7891 46.168 23.7598 46.3242 23.7598H48.3867C48.5469 23.7598 48.6973 23.791 48.8379 23.8535C48.9785 23.9121 49.0996 23.9941 49.2012 24.0996C49.3066 24.2012 49.3887 24.3223 49.4473 24.4629C49.5098 24.6035 49.541 24.7539 49.541 24.9141V30ZM55.0605 26.0391H57.8672V27.1934H55.0605V26.0391ZM67.7812 28.7988C68.3398 28.7988 68.7695 28.6484 69.0703 28.3477C69.3711 28.0469 69.5215 27.6172 69.5215 27.0586V24.5391C69.5215 24.2656 69.4824 24.0215 69.4043 23.8066C69.3262 23.5918 69.2109 23.4102 69.0586 23.2617C68.9102 23.1094 68.7285 22.9941 68.5137 22.916C68.2988 22.8379 68.0547 22.7988 67.7812 22.7988H64.7109V28.7988H67.7812ZM63.5098 30V21.5977H67.7812C68.2305 21.5977 68.6348 21.668 68.9941 21.8086C69.3574 21.9453 69.666 22.1426 69.9199 22.4004C70.1777 22.6543 70.375 22.9629 70.5117 23.3262C70.6523 23.6895 70.7227 24.0938 70.7227 24.5391V27.0586C70.7227 27.5039 70.6523 27.9082 70.5117 28.2715C70.375 28.6348 70.1777 28.9453 69.9199 29.2031C69.666 29.457 69.3574 29.6543 68.9941 29.7949C68.6348 29.9316 68.2305 30 67.7812 30H63.5098ZM77.8125 27.4688H73.6816V28.8457H77.8125V30H73.6816C73.5254 30 73.377 29.9707 73.2363 29.9121C73.0957 29.8496 72.9727 29.7676 72.8672 29.666C72.7656 29.5605 72.6836 29.4375 72.6211 29.2969C72.5625 29.1562 72.5332 29.0059 72.5332 28.8457V24.9141C72.5332 24.7539 72.5625 24.6035 72.6211 24.4629C72.6836 24.3223 72.7656 24.2012 72.8672 24.0996C72.9727 23.9941 73.0957 23.9121 73.2363 23.8535C73.377 23.791 73.5254 23.7598 73.6816 23.7598H76.6582C76.8184 23.7598 76.9688 23.791 77.1094 23.8535C77.25 23.9121 77.3711 23.9941 77.4727 24.0996C77.5781 24.2012 77.6602 24.3223 77.7188 24.4629C77.7812 24.6035 77.8125 24.7539 77.8125 24.9141V27.4688ZM73.6816 24.9141V26.3145H76.6582V24.9141H73.6816ZM81.5156 30L79.0195 23.7598H80.2207L82.1133 28.6172L84.0117 23.7598H85.2129L82.7168 30H81.5156ZM91.6992 27.4688H87.5684V28.8457H91.6992V30H87.5684C87.4121 30 87.2637 29.9707 87.123 29.9121C86.9824 29.8496 86.8594 29.7676 86.7539 29.666C86.6523 29.5605 86.5703 29.4375 86.5078 29.2969C86.4492 29.1562 86.4199 29.0059 86.4199 28.8457V24.9141C86.4199 24.7539 86.4492 24.6035 86.5078 24.4629C86.5703 24.3223 86.6523 24.2012 86.7539 24.0996C86.8594 23.9941 86.9824 23.9121 87.123 23.8535C87.2637 23.791 87.4121 23.7598 87.5684 23.7598H90.5449C90.7051 23.7598 90.8555 23.791 90.9961 23.8535C91.1367 23.9121 91.2578 23.9941 91.3594 24.0996C91.4648 24.2012 91.5469 24.3223 91.6055 24.4629C91.668 24.6035 91.6992 24.7539 91.6992 24.9141V27.4688ZM87.5684 24.9141V26.3145H90.5449V24.9141H87.5684ZM94.7754 21.3574V30H93.627V21.3574H94.7754ZM102.094 28.8457C102.094 29.0059 102.062 29.1562 102 29.2969C101.941 29.4375 101.859 29.5605 101.754 29.666C101.652 29.7676 101.531 29.8496 101.391 29.9121C101.254 29.9707 101.105 30 100.945 30H97.8457C97.6895 30 97.541 29.9707 97.4004 29.9121C97.2598 29.8496 97.1367 29.7676 97.0312 29.666C96.9297 29.5605 96.8477 29.4375 96.7852 29.2969C96.7266 29.1562 96.6973 29.0059 96.6973 28.8457V24.9141C96.6973 24.7539 96.7266 24.6035 96.7852 24.4629C96.8477 24.3223 96.9297 24.2012 97.0312 24.0996C97.1367 23.9941 97.2598 23.9121 97.4004 23.8535C97.541 23.791 97.6895 23.7598 97.8457 23.7598H100.945C101.105 23.7598 101.254 23.791 101.391 23.8535C101.531 23.9121 101.652 23.9941 101.754 24.0996C101.859 24.2012 101.941 24.3223 102 24.4629C102.062 24.6035 102.094 24.7539 102.094 24.9141V28.8457ZM97.8457 24.9141V28.8457H100.945V24.9141H97.8457ZM109.541 28.8457C109.541 29.0059 109.51 29.1562 109.447 29.2969C109.389 29.4375 109.307 29.5605 109.201 29.666C109.1 29.7676 108.979 29.8496 108.838 29.9121C108.697 29.9707 108.547 30 108.387 30H105.17V32.5195H104.021V23.7598H105.17V24.8145C105.182 24.666 105.221 24.5293 105.287 24.4043C105.354 24.2754 105.438 24.1641 105.539 24.0703C105.641 23.9727 105.758 23.8965 105.891 23.8418C106.027 23.7871 106.172 23.7598 106.324 23.7598H108.387C108.547 23.7598 108.697 23.791 108.838 23.8535C108.979 23.9121 109.1 23.9941 109.201 24.0996C109.307 24.2012 109.389 24.3223 109.447 24.4629C109.51 24.6035 109.541 24.7539 109.541 24.9141V28.8457ZM108.387 28.8457V24.9141H105.17V28.8457H108.387ZM116.742 27.4688H112.611V28.8457H116.742V30H112.611C112.455 30 112.307 29.9707 112.166 29.9121C112.025 29.8496 111.902 29.7676 111.797 29.666C111.695 29.5605 111.613 29.4375 111.551 29.2969C111.492 29.1562 111.463 29.0059 111.463 28.8457V24.9141C111.463 24.7539 111.492 24.6035 111.551 24.4629C111.613 24.3223 111.695 24.2012 111.797 24.0996C111.902 23.9941 112.025 23.9121 112.166 23.8535C112.307 23.791 112.455 23.7598 112.611 23.7598H115.588C115.748 23.7598 115.898 23.791 116.039 23.8535C116.18 23.9121 116.301 23.9941 116.402 24.0996C116.508 24.2012 116.59 24.3223 116.648 24.4629C116.711 24.6035 116.742 24.7539 116.742 24.9141V27.4688ZM112.611 24.9141V26.3145H115.588V24.9141H112.611ZM119.818 24.9141V30H118.67V23.7598H119.818V24.8613C119.826 24.709 119.861 24.5664 119.924 24.4336C119.986 24.2969 120.068 24.1797 120.17 24.082C120.275 23.9805 120.396 23.9023 120.533 23.8477C120.67 23.7891 120.816 23.7598 120.973 23.7598H122.197C122.357 23.7598 122.506 23.791 122.643 23.8535C122.783 23.9121 122.906 23.9941 123.012 24.0996C123.117 24.2012 123.199 24.3223 123.258 24.4629C123.32 24.6035 123.352 24.7539 123.352 24.9141V25.9688H122.197V24.9141H119.818Z" fill="black"/>
</g>
<defs>
<filter id="filter0_d" x="0.139069" y="0.479996" width="134.943" height="40.0395" filterUnits="userSpaceOnUse" color-interpolation-filters="sRGB">
<feFlood flood-opacity="0" result="BackgroundImageFix"/>
<feColorMatrix in="SourceAlpha" type="matrix" values="0 0 0 0 0 0 0 0 0 0 0 0 0 0 0 0 0 0 127 0"/>
<feOffset dy="4"/>
<feGaussianBlur stdDeviation="2"/>
<feColorMatrix type="matrix" values="0 0 0 0 0 0 0 0 0 0 0 0 0 0 0 0 0 0 0.25 0"/>
<feBlend mode="normal" in2="BackgroundImageFix" result="effect1_dropShadow"/>
<feBlend mode="normal" in="SourceGraphic" in2="effect1_dropShadow" result="shape"/>
</filter>
</defs>
</svg>
